<mxfile host="app.diagrams.net" modified="2023-09-09T01:41:08.725Z" agent="Mozilla/5.0 (Windows NT 10.0; Win64; x64) AppleWebKit/537.36 (KHTML, like Gecko) Chrome/116.0.0.0 Safari/537.36" etag="RrQ822FPo9HuAd2IwSML" version="21.7.4" type="device">
  <diagram name="페이지-1" id="jYglOjWSjAfZoVehC3k9">
    <mxGraphModel dx="819" dy="447" grid="1" gridSize="10" guides="1" tooltips="1" connect="1" arrows="1" fold="1" page="1" pageScale="1" pageWidth="827" pageHeight="1169" math="0" shadow="0">
      <root>
        <mxCell id="0" />
        <mxCell id="1" parent="0" />
        <mxCell id="e3MP-QjCPSx7ykozM8l3-1" value="track" style="whiteSpace=wrap;html=1;align=center;" vertex="1" parent="1">
          <mxGeometry x="210" y="180" width="100" height="40" as="geometry" />
        </mxCell>
        <mxCell id="e3MP-QjCPSx7ykozM8l3-2" value="artist" style="whiteSpace=wrap;html=1;align=center;" vertex="1" parent="1">
          <mxGeometry x="180" y="270" width="100" height="40" as="geometry" />
        </mxCell>
        <mxCell id="e3MP-QjCPSx7ykozM8l3-3" value="playlist" style="whiteSpace=wrap;html=1;align=center;" vertex="1" parent="1">
          <mxGeometry x="500" y="350" width="100" height="40" as="geometry" />
        </mxCell>
        <mxCell id="e3MP-QjCPSx7ykozM8l3-4" value="show" style="whiteSpace=wrap;html=1;align=center;" vertex="1" parent="1">
          <mxGeometry x="380" y="450" width="100" height="40" as="geometry" />
        </mxCell>
        <mxCell id="e3MP-QjCPSx7ykozM8l3-5" value="episode" style="whiteSpace=wrap;html=1;align=center;" vertex="1" parent="1">
          <mxGeometry x="240" y="520" width="100" height="40" as="geometry" />
        </mxCell>
        <mxCell id="e3MP-QjCPSx7ykozM8l3-6" value="audiobook" style="whiteSpace=wrap;html=1;align=center;" vertex="1" parent="1">
          <mxGeometry x="480" y="510" width="100" height="40" as="geometry" />
        </mxCell>
        <mxCell id="e3MP-QjCPSx7ykozM8l3-7" value="album" style="whiteSpace=wrap;html=1;align=center;" vertex="1" parent="1">
          <mxGeometry x="510" y="180" width="100" height="40" as="geometry" />
        </mxCell>
        <mxCell id="e3MP-QjCPSx7ykozM8l3-8" value="" style="edgeStyle=entityRelationEdgeStyle;fontSize=12;html=1;endArrow=ERzeroToMany;endFill=1;rounded=0;" edge="1" parent="1" source="e3MP-QjCPSx7ykozM8l3-1" target="e3MP-QjCPSx7ykozM8l3-2">
          <mxGeometry width="100" height="100" relative="1" as="geometry">
            <mxPoint x="110" y="390" as="sourcePoint" />
            <mxPoint x="210" y="290" as="targetPoint" />
          </mxGeometry>
        </mxCell>
        <mxCell id="e3MP-QjCPSx7ykozM8l3-10" value="" style="edgeStyle=entityRelationEdgeStyle;fontSize=12;html=1;endArrow=ERzeroToMany;endFill=1;rounded=0;" edge="1" parent="1" source="e3MP-QjCPSx7ykozM8l3-1" target="e3MP-QjCPSx7ykozM8l3-7">
          <mxGeometry width="100" height="100" relative="1" as="geometry">
            <mxPoint x="370" y="390" as="sourcePoint" />
            <mxPoint x="470" y="290" as="targetPoint" />
          </mxGeometry>
        </mxCell>
        <mxCell id="e3MP-QjCPSx7ykozM8l3-11" value="image&lt;br&gt;&lt;br&gt;+ url" style="whiteSpace=wrap;html=1;align=center;" vertex="1" parent="1">
          <mxGeometry x="60" y="390" width="100" height="110" as="geometry" />
        </mxCell>
        <mxCell id="e3MP-QjCPSx7ykozM8l3-12" value="" style="edgeStyle=entityRelationEdgeStyle;fontSize=12;html=1;endArrow=ERzeroToMany;endFill=1;rounded=0;exitX=0.5;exitY=1;exitDx=0;exitDy=0;" edge="1" parent="1" source="e3MP-QjCPSx7ykozM8l3-2" target="e3MP-QjCPSx7ykozM8l3-11">
          <mxGeometry width="100" height="100" relative="1" as="geometry">
            <mxPoint x="380" y="410" as="sourcePoint" />
            <mxPoint x="320" y="370" as="targetPoint" />
          </mxGeometry>
        </mxCell>
        <mxCell id="e3MP-QjCPSx7ykozM8l3-13" value="" style="edgeStyle=entityRelationEdgeStyle;fontSize=12;html=1;endArrow=ERzeroToMany;endFill=1;rounded=0;exitX=0;exitY=0.5;exitDx=0;exitDy=0;entryX=1;entryY=0.75;entryDx=0;entryDy=0;" edge="1" parent="1" source="e3MP-QjCPSx7ykozM8l3-3" target="e3MP-QjCPSx7ykozM8l3-11">
          <mxGeometry width="100" height="100" relative="1" as="geometry">
            <mxPoint x="350" y="440" as="sourcePoint" />
            <mxPoint x="450" y="340" as="targetPoint" />
          </mxGeometry>
        </mxCell>
        <mxCell id="e3MP-QjCPSx7ykozM8l3-14" value="owner" style="whiteSpace=wrap;html=1;align=center;" vertex="1" parent="1">
          <mxGeometry x="660" y="270" width="100" height="40" as="geometry" />
        </mxCell>
        <mxCell id="e3MP-QjCPSx7ykozM8l3-15" value="follow" style="whiteSpace=wrap;html=1;align=center;" vertex="1" parent="1">
          <mxGeometry x="660" y="370" width="100" height="40" as="geometry" />
        </mxCell>
        <mxCell id="e3MP-QjCPSx7ykozM8l3-16" value="" style="edgeStyle=entityRelationEdgeStyle;fontSize=12;html=1;endArrow=ERzeroToMany;endFill=1;rounded=0;exitX=0.993;exitY=0.375;exitDx=0;exitDy=0;entryX=0;entryY=0.5;entryDx=0;entryDy=0;exitPerimeter=0;" edge="1" parent="1" source="e3MP-QjCPSx7ykozM8l3-3" target="e3MP-QjCPSx7ykozM8l3-14">
          <mxGeometry width="100" height="100" relative="1" as="geometry">
            <mxPoint x="510" y="380" as="sourcePoint" />
            <mxPoint x="170" y="430" as="targetPoint" />
          </mxGeometry>
        </mxCell>
        <mxCell id="e3MP-QjCPSx7ykozM8l3-17" value="" style="edgeStyle=entityRelationEdgeStyle;fontSize=12;html=1;endArrow=ERzeroToMany;endFill=1;rounded=0;exitX=1;exitY=0.5;exitDx=0;exitDy=0;" edge="1" parent="1" source="e3MP-QjCPSx7ykozM8l3-14" target="e3MP-QjCPSx7ykozM8l3-15">
          <mxGeometry width="100" height="100" relative="1" as="geometry">
            <mxPoint x="609" y="375" as="sourcePoint" />
            <mxPoint x="670" y="300" as="targetPoint" />
          </mxGeometry>
        </mxCell>
      </root>
    </mxGraphModel>
  </diagram>
</mxfile>
